<?xml version="1.0" encoding="utf-8"?>
<!-- Generator: Adobe Illustrator 15.1.0, SVG Export Plug-In . SVG Version: 6.00 Build 0)  -->
<!DOCTYPE svg PUBLIC "-//W3C//DTD SVG 1.1//EN" "http://www.w3.org/Graphics/SVG/1.1/DTD/svg11.dtd">
<svg version="1.1"
	 id="Layer_1" xmlns:dc="http://purl.org/dc/elements/1.1/" xmlns:cc="http://web.resource.org/cc/" xmlns:rdf="http://www.w3.org/1999/02/22-rdf-syntax-ns#"
	 xmlns="http://www.w3.org/2000/svg" xmlns:xlink="http://www.w3.org/1999/xlink" x="0px" y="0px" width="64.151px"
	 height="73.431px" viewBox="101.968 183.54 64.151 73.431" enable-background="new 101.968 183.54 64.151 73.431"
	 xml:space="preserve">
<g>
	<path d="M132.868,189.667c-0.863,1.357-2.644,1.462-4.094,0.62c-0.457,0.082-0.618,0.458-0.869,0.745
		c3.784,0.903,7.401,2.592,10.918,4.218c3.013,1.393,5.674,3.207,8.189,5.087c3.945,2.95,7.211,5.965,10.422,9.553
		c1.075,1.203,1.783,2.496,2.729,3.846c0.265,0.377,0.73,0.619,0.993,0.993c0.47,0.669,0.862,1.717,1.365,2.605
		c1.284,2.267,2.87,5.48,3.598,8.189c1.498,5.57,1.645,11.549-1.613,16.253c-0.292,0.423-0.76,0.91-1.116,1.365
		c-1.62,2.069-3.68,4.222-5.832,5.956c-0.577,0.465-1.1,1.107-1.613,1.489c-0.458,0.34-1.021,0.456-1.489,0.744
		c-1.442,0.89-2.735,2.025-4.343,2.854c-0.502,0.259-1.171,0.36-1.737,0.62c-1.33,0.612-3.185,1.451-4.963,1.737
		c-1.55,0.25-3.22,0.19-5.087,0.372c-5.729,0.559-13.182-3.036-16.626-7.196c-0.374-0.452-0.737-1.084-1.117-1.613
		c-2.347-3.267-4.895-6.857-6.948-10.67c-1.808-3.355-3.596-7.005-4.594-10.176c-1.678-5.334-2.35-10.424-2.356-16.874
		c-1.326,0.453-2.559,2.074-4.095,2.729c-0.209-1.465,1.146-3.058,0.992-4.467c-0.28-0.339-1.322,0.082-1.613-0.248
		c0.149-1.174,1.139-1.509,1.365-2.605c1.683-1.54,3.77-2.305,5.459-3.971c0.769-0.756,1.293-2.13,1.985-2.979
		c0.155-0.188,0.544-0.268,0.745-0.496c0.66-0.751,1.227-1.846,1.984-2.854c0.719-0.955,1.957-2.23,1.985-2.729
		c0.044-0.79-0.941-1.354-0.993-2.109c-0.055-0.798,0.653-1.842,1.613-1.985c2.02-0.302,3.025,1.643,4.219,2.978
		c0.671-0.307,1.544-0.764,2.357-0.248c1.427-1.095,2.784-2.262,3.971-3.598c-0.392-0.988-1.085-2.146-0.621-3.598
		c2.955-2.385,6.578,2.164,6.825,5.459L132.868,189.667z M127.658,183.96c-0.069,0.179-0.193,0.303-0.372,0.372
		c0.677,2.308,2.088,4.52,4.839,4.343C131.591,186.148,130.28,184.398,127.658,183.96L127.658,183.96z M131.379,189.667
		c-2.361-1.03-3.554-3.229-4.963-5.211C126.399,187.843,128.212,189.858,131.379,189.667L131.379,189.667z M123.44,191.777
		c0.335,0.203,0.59,0.485,0.745,0.868c1.326-0.535,1.926-1.796,3.102-2.481c-0.156-0.629-0.581-0.99-0.868-1.489
		C125.584,189.868,124.207,190.518,123.44,191.777L123.44,191.777z M115.994,189.419c0.438,2.118,2.112,4.308,4.467,3.971
		C119.989,191.116,118.438,189.314,115.994,189.419L115.994,189.419z M115.002,190.536c0.6,1.391,2.257,4.187,3.972,4.218
		c0.375,0.007,1.094,0.198,0.992-0.62c-2.487-0.45-3.357-2.515-4.715-4.095C115.185,190.223,115.066,190.352,115.002,190.536
		L115.002,190.536z M121.329,191.777c-0.274,2.52,0.744,5.309,3.722,5.335C125.576,195.137,124.309,191.776,121.329,191.777
		L121.329,191.777z M127.906,195.995c2.662,0.897,5.182,1.454,7.568,2.233c2.959,0.967,5.533,2.553,8.312,3.474
		c0.171-0.723-0.265-1.58-0.248-2.233c-2.72-2.481-6.661-3.663-10.174-5.335c-1.9-0.905-3.843-1.721-5.832-1.985
		C127.315,193.174,127.595,194.395,127.906,195.995L127.906,195.995z M125.673,194.506c-0.077,0.457,0.242,0.968,0.248,1.365
		c0.031,2.11-1.122,3.255-3.598,2.605c0.022,1.288,0.219,1.665,0.372,2.729c1.312-0.431,2.541-2.851,3.599-4.094
		c0.384-0.451,0.875-0.608,0.992-1.117c0.188-0.814-0.049-2.452-0.62-3.102c-0.067,0.587-0.86,0.826-0.994,1.612L125.673,194.506z
		 M124.184,197.732c-0.028-0.51-0.605-0.471-1.117-0.497c-0.946-0.832-1.786-1.771-1.985-3.35h-0.372
		C119.636,196.009,122.32,198.131,124.184,197.732L124.184,197.732z M115.374,198.229c1.274-0.876,2.751-1.55,3.847-2.605
		C117.41,194.343,116.243,196.784,115.374,198.229z M119.096,196.368c-2.538,1.97-5.798,3.219-7.196,6.328
		c2.695-1.813,5.467-3.549,8.064-5.459v-0.62C119.469,196.739,119.59,196.245,119.096,196.368L119.096,196.368z M127.533,196.616
		c-1.418,1.6-2.908,3.13-3.97,5.087c5.08,2.323,9.246,5.561,13.896,8.313c1.219-1.057,2.036-2.514,3.351-3.474
		c0.681-1.718,2.433-2.365,3.102-4.095C138.978,199.979,133.679,197.875,127.533,196.616L127.533,196.616z M117.98,201.33
		c-0.822,0.839-1.831,1.515-1.861,2.233c-0.019,0.449,0.237,0.957,0.376,1.457c0.422,1.515,1.051,2.793,1.609,4.25
		c2.421,4.963,6.393,13.808,7.071,15.261c1.351,2.312,2.294,4.206,3.567,6.426c0.808,1.408,1.792,2.885,2.636,4.245
		c0.209,0.337,1.129,1.768,1.365,2.109c1.291,1.869,4.501,4.26,7.568,4.591c2.288,0.247,4.938-0.912,6.204-1.861
		c2.237-1.678,3.958-4.07,5.335-6.452c1.801-3.116,0.498-6.527-1.117-9.306c-3.059-3.808-6.386-7.345-10.298-10.298
		c-1.842-1.651-4.055-2.792-6.08-4.218c-2.036-1.433-4.051-2.956-6.328-4.095c-0.052-0.402-0.516-0.394-0.621-0.744
		c-1.584-0.566-2.893-1.409-4.343-2.109c-0.521-0.29-0.383-0.095-0.992,0c-1.005-0.938-1.006-2.277-1.241-4.094
		c-0.159-0.007-0.172-0.159-0.372-0.125C119.662,199.48,119.013,200.278,117.98,201.33L117.98,201.33z M144.409,202.199
		c4.14,1.857,7.263,4.731,10.546,7.444c-0.933-1.782-2.58-2.998-3.97-4.342c-1.414-1.367-2.858-2.829-4.715-3.722
		c-0.395-0.765-1.416-0.901-1.861-1.613h-0.372C144.194,200.993,144.371,201.589,144.409,202.199L144.409,202.199z M137.956,210.512
		c0.71,1.065,1.204,0.91,2.109,1.489c1.088,0.695,2.188,1.761,3.35,2.729c3.84,3.205,8.522,7.527,10.298,12.16
		c1.569,4.093,0.433,9.812-1.86,12.903c-0.949,1.279-2.389,2.42-3.599,3.227c-1.96,1.305-4.085,2.058-6.575,2.357
		c-5.997,0.722-10.367-2.665-14.021-6.824c-3.592-4.091-5.541-9.589-7.568-14.021c-2.967,1.292-5.996,2.524-8.933,3.846
		c1.006,2.85,2.328,5.742,3.846,8.437c1.479,2.627,2.882,5.354,4.591,7.693c2.729,3.734,5.154,7.053,9.307,9.181
		c1.271,0.653,2.853,1.396,4.342,1.861c2.49,0.777,5.618,0.466,8.313,0.248c0.578-0.047,1.467-0.156,2.232-0.372
		c2.771-0.781,5.962-2.581,8.562-4.467c3.66-2.655,6.834-5.794,9.306-9.182c1.027-3.343,3.299-6.426,2.854-10.546
		c-0.193-1.796-1.01-3.379-1.364-5.087c-0.101-0.48-0.022-1-0.124-1.489c-0.478-2.282-1.604-4.457-2.606-6.576
		c-2.16-4.572-4.813-7.222-8.437-10.298c-2.388-2.027-4.596-3.647-7.196-4.839h-0.248
		C142.106,205.233,140.018,207.859,137.956,210.512L137.956,210.512z M102.968,207.783c2.646-0.25,3.337-2.454,4.592-4.094
		c-0.015-0.151-0.037-0.294-0.248-0.249C105.924,204.949,103.543,205.462,102.968,207.783L102.968,207.783z M110.908,207.161
		c-0.588,0.818-1.362,1.45-2.604,1.613c-0.448,1.778-0.133,2.669-0.124,3.723c2.133-0.969,3.996-2.208,5.832-3.475
		c-0.017-1.504,0.659-2.317,0.744-3.722C113.212,205.661,112.381,206.732,110.908,207.161L110.908,207.161z M114.382,209.024
		c0.027,0.595,0.536,1.623,0.869,2.481c1.571,4.06,3.196,8.375,4.963,11.787c0.254-1.109,1.409-2.018,1.365-3.226
		c-0.03-0.805-1.016-2.384-1.489-3.599c-0.5-1.282-1.109-2.417-1.612-3.598c-1.179-2.77-2.387-5.878-3.103-7.568
		c-0.144,1.257-1.049,2.433-0.991,3.723H114.382z M113.886,209.768c-1.746,1.273-3.773,2.266-5.583,3.474
		c0.014,4.959,0.74,9.587,2.604,14.393c3.205-1.014,6.321-2.116,8.81-3.846C117.706,219.181,116.158,214.112,113.886,209.768
		L113.886,209.768z M120.462,224.285c0.024,0.607,0.836,1.921,1.364,3.102c0.723,1.615,1.525,3.047,2.11,4.219
		c0.688,1.38,1.045,2.871,1.736,3.971c1.101,1.747,3.006,3.755,4.716,5.211c1.905,1.623,3.975,3.304,6.203,3.846
		c3.688,0.898,7.536-0.035,9.927-1.241c3.092-1.559,5.813-4.227,6.823-7.32c0.233-0.715,0.269-1.656,0.372-2.605
		c-1.758,2-3.521,5.673-6.575,7.444c-1.379,0.798-3.45,1.88-5.212,1.985c-3.621,0.215-6.578-1.74-9.058-3.35
		c-4.031-5.771-7.457-12.146-10.794-18.611h-0.372c-0.056,1.12-1.287,2.17-1.241,3.352V224.285z"/>
	<path fill="#B0B6BB" d="M132.125,188.675c-2.751,0.177-4.161-2.035-4.839-4.343c0.179-0.069,0.303-0.193,0.372-0.372
		C130.28,184.398,131.591,186.148,132.125,188.675L132.125,188.675z"/>
	<path fill="#E4E5E6" d="M126.417,184.456c1.409,1.982,2.603,4.182,4.963,5.211C128.212,189.858,126.399,187.843,126.417,184.456
		L126.417,184.456z"/>
	<path fill="#E4E5E6" d="M126.417,188.675c0.288,0.499,0.712,0.859,0.869,1.489c-1.176,0.685-1.776,1.946-3.102,2.481
		c-0.154-0.383-0.41-0.666-0.745-0.868C124.206,190.518,125.583,189.868,126.417,188.675L126.417,188.675z"/>
	<path fill="#B0B6BB" d="M120.461,193.39c-2.354,0.337-4.029-1.853-4.467-3.971C118.438,189.314,119.988,191.116,120.461,193.39
		L120.461,193.39z"/>
	<path fill="#E4E5E6" d="M115.25,190.04c1.356,1.58,2.229,3.645,4.715,4.095c0.103,0.818-0.617,0.627-0.992,0.62
		c-1.715-0.031-3.372-2.828-3.972-4.218C115.066,190.352,115.185,190.223,115.25,190.04L115.25,190.04z"/>
	<path fill="#B0B6BB" d="M125.052,197.112c-2.979-0.026-3.998-2.815-3.724-5.335C124.31,191.776,125.577,195.137,125.052,197.112
		L125.052,197.112z"/>
	<path fill="#B0B6BB" d="M127.533,192.149c1.989,0.264,3.932,1.081,5.832,1.985c3.514,1.673,7.454,2.854,10.174,5.335
		c-0.017,0.654,0.419,1.51,0.248,2.233c-2.779-0.921-5.354-2.506-8.312-3.474c-2.387-0.78-4.906-1.336-7.568-2.233
		C127.594,194.395,127.314,193.174,127.533,192.149L127.533,192.149z"/>
	<path fill="#E4E5E6" d="M126.666,192.894c0.571,0.65,0.808,2.287,0.62,3.102c-0.117,0.508-0.608,0.666-0.993,1.117
		c-1.057,1.244-2.285,3.663-3.598,4.095c-0.153-1.065-0.35-1.442-0.372-2.73c2.476,0.649,3.629-0.495,3.598-2.605
		c-0.006-0.396-0.325-0.908-0.248-1.365C125.806,193.719,126.599,193.48,126.666,192.894L126.666,192.894z"/>
	<path fill="#E4E5E6" d="M120.709,193.886h0.372c0.199,1.58,1.039,2.518,1.985,3.35c0.512,0.026,1.088-0.013,1.117,0.497
		C122.319,198.131,119.636,196.009,120.709,193.886L120.709,193.886z"/>
	<path fill="#E4E5E6" d="M110.535,203.44c-1.812,2.364-4.303,5.126-5.087,6.7c-0.948,0.209-1.138,1.178-1.985,1.488
		c0.693-3.435,3.179-5.603,4.963-8.312c1.397-2.122,2.949-4.093,4.344-5.832c0.854-1.067,1.368-2.367,2.356-3.226
		c2.247,0.925-0.971,4.092-1.736,5.087c-1.264,1.64-2.163,2.933-2.854,4.093V203.44z"/>
	<path fill="#E4E5E6" d="M119.966,196.616v0.62c-2.599,1.91-5.37,3.646-8.064,5.459c1.398-3.109,4.659-4.358,7.196-6.328
		C119.591,196.245,119.47,196.738,119.966,196.616L119.966,196.616z"/>
	<path fill="#E4E5E6" d="M143.911,202.446c-0.669,1.73-2.421,2.377-3.102,4.094c-1.314,0.96-2.133,2.417-3.351,3.474
		c-4.65-2.752-8.815-5.99-13.896-8.313c1.062-1.957,2.552-3.487,3.97-5.087C133.68,197.875,138.978,199.98,143.911,202.446
		L143.911,202.446z"/>
	<path fill="#E4E5E6" d="M109.993,205.379c1.159-1.732,6.103-4.138,7.614-5.539c0.211-0.046,0.233,0.097,0.249,0.248
		c-2.123,1.682-7.223,6.371-9.58,7.818C108.326,207.238,109.672,205.861,109.993,205.379L109.993,205.379z"/>
	<path fill="#B32317" d="M144.035,199.966h0.373c0.445,0.712,1.467,0.848,1.861,1.613c1.855,0.894,3.301,2.355,4.715,3.722
		c1.39,1.345,3.038,2.561,3.97,4.343c-3.284-2.713-6.407-5.587-10.546-7.444C144.369,201.588,144.193,200.992,144.035,199.966
		L144.035,199.966z"/>
	<path fill="#EE3224" d="M144.531,202.943h0.248c2.601,1.191,4.809,2.812,7.196,4.839c3.623,3.076,6.276,5.727,8.437,10.298
		c1.001,2.119,2.129,4.293,2.605,6.576c0.102,0.49,0.473,1.104,0.572,1.585c0.355,1.708,0.724,3.195,0.917,4.991
		c0.444,4.12-1.826,7.203-2.854,10.546c-2.471,3.387-5.646,6.526-9.306,9.182c-2.601,1.886-5.791,3.686-8.562,4.467
		c-0.766,0.216-1.655,0.325-2.232,0.372c-2.695,0.218-5.823,0.529-8.313-0.248c-1.49-0.465-3.07-1.208-4.343-1.861
		c-4.152-2.128-6.578-5.447-9.307-9.181c-1.708-2.339-3.11-5.066-4.591-7.693c-1.518-2.695-2.839-5.587-3.846-8.437
		c2.938-1.322,5.966-2.554,8.934-3.846c2.027,4.432,3.977,9.93,7.568,14.021c3.653,4.16,8.023,7.546,14.021,6.824
		c2.491-0.3,4.616-1.053,6.576-2.357c1.21-0.806,2.65-1.947,3.599-3.227c2.293-3.092,3.43-8.811,1.86-12.903
		c-1.774-4.633-6.458-8.955-10.298-12.16c-1.161-0.968-2.261-2.034-3.35-2.729c-0.906-0.579-1.399-0.424-2.109-1.489
		c2.062-2.657,4.15-5.283,6.576-7.572V202.943z"/>
	<path fill="#E4E5E6" d="M107.309,203.44c0.211-0.046,0.233,0.097,0.248,0.248c-1.254,1.641-1.945,3.845-4.592,4.094
		C103.542,205.462,105.923,204.949,107.309,203.44L107.309,203.44z"/>
	<path fill="#E4E5E6" d="M114.754,205.301c-0.084,1.405-0.76,2.218-0.744,3.723c-1.835,1.267-3.698,2.505-5.831,3.474
		c-0.009-1.054-0.324-1.944,0.123-3.723c1.243-0.163,2.019-0.795,2.605-1.613C112.38,206.733,113.211,205.662,114.754,205.301
		L114.754,205.301z"/>
	<path fill="#B0B6BB" d="M115.374,205.301c0.715,1.69,1.923,4.799,3.103,7.568c0.503,1.181,1.113,2.316,1.612,3.599
		c0.474,1.214,1.459,2.793,1.489,3.598c0.044,1.208-1.111,2.117-1.365,3.226c-1.767-3.413-3.392-7.728-4.963-11.788
		c-0.333-0.859-0.842-1.886-0.869-2.481C114.323,207.733,115.228,206.557,115.374,205.301L115.374,205.301z"/>
	<path fill="#E4E5E6" d="M119.717,223.788c-2.488,1.73-5.604,2.832-8.81,3.846c-1.864-4.806-2.592-9.434-2.604-14.393
		c1.811-1.208,3.837-2.201,5.582-3.474C116.157,214.115,117.705,219.184,119.717,223.788L119.717,223.788z"/>
	<path fill="#B32317" d="M121.702,220.935h0.372c3.337,6.465,6.764,12.84,10.794,18.611c2.479,1.61,5.437,3.565,9.058,3.35
		c1.762-0.105,3.833-1.187,5.211-1.985c3.055-1.771,4.816-5.444,6.575-7.444c-0.104,0.95-0.139,1.89-0.372,2.605
		c-1.01,3.094-3.731,5.761-6.823,7.32c-2.392,1.206-6.237,2.139-9.927,1.241c-2.229-0.542-4.298-2.223-6.203-3.846
		c-1.709-1.456-3.615-3.464-4.716-5.211c-0.691-1.1-1.048-2.59-1.736-3.971c-0.585-1.171-1.388-2.604-2.109-4.219
		c-0.528-1.18-1.341-2.495-1.365-3.102c-0.045-1.185,1.186-2.235,1.241-3.354L121.702,220.935L121.702,220.935z"/>
</g>
</svg>
